<?xml version="1.0" encoding="utf-8"?>
<!-- Generator: Adobe Illustrator 16.0.0, SVG Export Plug-In . SVG Version: 6.00 Build 0)  -->
<!DOCTYPE svg PUBLIC "-//W3C//DTD SVG 1.1//EN" "http://www.w3.org/Graphics/SVG/1.1/DTD/svg11.dtd">
<svg version="1.1" id="Layer_1" xmlns="http://www.w3.org/2000/svg" xmlns:xlink="http://www.w3.org/1999/xlink" x="0px" y="0px"
	 width="100px" height="62px" viewBox="0 0 100 62" preserveAspectRatio="none">
<g>
	<path fill-rule="evenodd" clip-rule="evenodd" fill="#FFFFFF" d="M98.189,59.881c-5.654,0.199-9.634-0.654-14.603,0.209
		c-2.089-0.219-3.708,0.168-5.695-0.355c-1.986,0.303-4.444,0.398-6.41-0.193c-0.534,0.256-1.487,0.105-2.008,0.381
		c-3.262-0.385-7.065-0.006-10.608-0.152c-4.276-0.176-9.021,0.002-13.169-0.311c-1.136,0.486-2.541,0.055-3.972,0.057
		c-0.564,0.004-1.155,0.205-1.762,0.195c-1.85-0.035-3.93-0.33-5.82-0.258c-1.915,0.066-3.505,0.631-5.127-0.113
		c-5.637,0.695-11.516-0.469-17.27-0.062c-0.364,0.023-0.7,0.221-1.065,0.238c-0.535,0.025-1.052-0.279-1.616-0.305
		c-2.172-0.098-4.638,0.486-6.639-0.207c-0.699-3.375,0.114-6.289-0.111-9.511c-0.11-1.561-0.583-4.002,0.144-6.056
		c-0.33-0.489-0.92-4.478,0.15-4.34c0.797,0.104,0.875,1.994,0.886,2.683c0.015,0.979-0.121,2.025-0.078,3.131
		c0.077,2.105-0.139,3.717-0.006,5.76c0.166,2.604,0.058,5.44,0.711,7.325c2.816,0.412,4.637-0.123,6.983,0.33
		c0.823-0.311,1.82-0.031,3.035-0.012c4.078,0.057,8.164-0.207,12.257-0.051c0.578,0.023,1.163,0.207,1.736,0.209
		c2.056,0.002,3.674-0.227,5.833,0.059c1.64,0.215,3.619-0.213,5.496-0.164c1.794,0.045,3.958,0.17,5.929,0.365
		c1.947-0.506,5.072-0.133,7.709-0.127c4.333,0.006,8.928-0.139,12.966-0.207c3.201-0.057,6.487,0.119,9.799,0.098
		c7.257-0.041,14.512,0.451,21.009-0.012c0.609-3.531,0.185-7.182-0.012-11.122c-0.051-1.044-0.252-2.341,0.543-3.099
		c1.621,0.212,1.347,2.824,1.352,4.53c0.006,1.909-0.158,3.499-0.206,5.245C98.494,56.172,99.071,58.391,98.189,59.881z"/>
	<path fill-rule="evenodd" clip-rule="evenodd" fill="#FFFFFF" d="M95.842,3.522c-0.864-0.322-2.322-0.272-3.344-0.611
		c-0.506-0.013,0.108,0.487-0.373,0.381c-1.937-0.259-3.547-0.06-5.477-0.135c-0.521-0.021-1.329,0.149-1.642,0.1
		c-0.091-0.014-0.203-0.32-0.328-0.323c-1.276-0.041-2.64-0.088-3.733-0.029c-0.571,0.031-1.097,0.309-1.652,0.301
		c-0.711-0.009-1.305-0.147-1.629-0.1c-0.729,0.107-0.978-0.296-1.519,0.008C75.678,3.062,76.25,2.6,75.72,2.48
		c-0.457-0.127-0.083,0.558-0.498,0.474c-1.309,0-2.313-0.153-3.177,0.41c-1.55-0.706-3.345,0.034-5.129-0.116
		C61.469,2.79,55.245,3.183,49.688,2.585c-0.986,0.489-2.545,0.103-3.98,0.157c-3.208,0.123-7.923,0.23-10.85-0.065
		c-0.56-0.087-0.538,0.396-1.07,0.338c-2.221-0.589-5.76,0.15-7.79-0.482c-2.399,0.522-4.775-0.317-7.25,0.258
		c-0.968-0.57-2.276-0.102-3.844-0.136c-1.384-0.031-2.845-0.361-4.185-0.259c-0.953,0.071-1.753,0.144-2.81,0.129
		c-1.481-0.02-3.126-0.007-4.457,0.329C2.376,7.496,4.079,12.232,3.07,16.581c0.245,0.618,0.495,1.672-0.242,2.007
		c-1.555-0.188-1.045-1.381-1.017-2.389C1.943,11.138,1.54,5.96,1.681,1.33c2.742-0.46,5.693-0.316,8.536-0.279
		c4.014,0.049,8.532,0.096,12.95,0.093c7.895-0.005,16.011,0.397,23.896,0.469c6.459,0.06,14.174,0.057,20.88,0.181
		c2.911,0.056,5.851,0.325,8.732,0.338c3.962,0.021,8.754-0.13,13.055,0.304c2.069-0.472,4.612,0.079,7.249-0.259
		c1.108,0.505,0.75,1.625,0.772,2.575c0.033,1.021,0.308,2.136,0.274,3.151c-0.042,1.235-0.006,2.011,0.044,3.037
		c0.053,1.074-0.271,2.215-0.205,3.323c0.071,1.229,0.426,2.436,0.473,3.668c0.038,0.926-0.305,1.841-0.293,2.812
		c0.008,0.461,0.22,0.86,0.27,1.331c0.165,1.643-0.171,3.366-0.094,5.252c0.194,4.73,0.302,9.111,0.336,13.467
		c0.002,0.626,0.151,1.896-1.148,1.547c-0.867-0.233-0.601-2.5-0.62-3.171c-0.29-10.492-0.055-18.829-0.38-29.647
		C96.351,7.644,96.404,5.228,95.842,3.522z"/>
	<path fill-rule="evenodd" clip-rule="evenodd" fill="#FFFFFF" d="M88.273,5.178c0.253,0.028,0.023,0.43,0.079,0.612
		C88.267,5.6,88.07,5.493,88.035,5.264C88.168,5.288,88.242,5.254,88.273,5.178z"/>
	<path fill-rule="evenodd" clip-rule="evenodd" fill="#FFFFFF" d="M87.226,5.213c0.095,0.383-0.312,0.27-0.275,0.59
		c-0.405-0.042-0.746-0.02-0.941,0.144c-0.398-0.02-0.146-0.529-0.552-0.541C85.606,5.149,86.773,5.109,87.226,5.213z"/>
	<path fill-rule="evenodd" clip-rule="evenodd" fill="#FFFFFF" d="M84.976,5.681c-0.47-0.059-0.491-0.459-0.199-0.618
		C84.966,5.174,84.877,5.498,84.976,5.681z"/>
	<path fill-rule="evenodd" clip-rule="evenodd" fill="#FFFFFF" d="M84.379,5.846c-1.108-0.177-1.981-0.061-2.537-0.46
		c-0.863,0.922-2.357,0.342-3.404,0.295c0.085-0.375,0.175-0.45-0.194-0.619c1.663-0.006,4.081-0.198,6.17,0.28
		C84.403,5.51,84.391,5.679,84.379,5.846z"/>
	<path fill-rule="evenodd" clip-rule="evenodd" fill="#FFFFFF" d="M2.646,38.493c-0.942-0.488-0.65-1.751-0.651-2.669
		c-0.002-1.332,0.155-2.636,0.127-3.935c-0.012-0.489-0.269-0.975-0.262-1.431c0.006-0.435,0.295-0.867,0.312-1.296
		c0.073-1.678-0.31-3.439-0.385-5.08C1.739,23,1.646,21.685,2.454,20.89c1.296,0.376,0.704,1.749,0.773,2.575
		c0.215,2.54-0.055,5.622-0.064,8.591c-0.006,1.725-0.136,3.845,0.03,5.157C3.247,37.635,3.562,38.643,2.646,38.493z"/>
</g>
</svg>
